# xmcd CD database file
#
# Track frame offsets:
#	300
#	12672
#	26310
#	42768
#	52422
#	65393
#	77093
#	90185
#	104535
#
# Disc length: 1551 seconds
#
# Revision: 0
# Processed by: cddbd v1.5.1PL0 Copyright (c) Steve Scherf et al.
# Submitted via: CDex 1.51
#
DISCID=6d060b09
DTITLE=Zu - The Way Of The Animal Powers
DYEAR=2005
DGENRE=Jazz
TTITLE0=Tomaraya Is Our Elvis
TTITLE1=Anatomy Of A Lost Battle
TTITLE2=Shape Shifting
TTITLE3=The Aftermath
TTITLE4=Things Fall Apart
TTITLE5=The Witch Herbalist Of The Remote Town
TTITLE6=Farewell To The Species
TTITLE7=A Fortress Against Shadows
TTITLE8=Every Seagull Knows
EXTD=YEAR: 2005
EXTT0=
EXTT1=
EXTT2=
EXTT3=
EXTT4=
EXTT5=
EXTT6=
EXTT7=
EXTT8=
PLAYORDER=
